<svg width="58" height="78" viewBox="0 0 58 78" fill="none" xmlns="http://www.w3.org/2000/svg">
<g clip-path="url(#clip0_59_395)">
<path d="M27.9469 73.541C32.1539 71.557 28.8969 77.404 28.0719 74.541L27.9469 73.541Z" stroke="white" stroke-width="1.5" stroke-miterlimit="10" stroke-linecap="round" stroke-linejoin="round"/>
<path d="M52.8259 0.991983C53.9569 0.891983 54.9019 1.08198 55.6089 1.96498C55.9469 2.38498 56.1049 2.87498 56.2009 3.36698C56.2869 3.81998 56.2869 3.81998 56.3259 4.61698L56.8259 73.242C56.8079 76.148 55.5989 76.992 52.8259 76.992L4.82595 77.117C2.40995 77.349 0.950948 75.801 1.20095 73.742V5.24198C1.17395 4.49198 1.15995 2.65798 1.94695 1.74998C2.84295 0.718983 4.32595 0.866983 5.45095 0.866983L52.8259 0.991983Z" stroke="white" stroke-width="1.5" stroke-miterlimit="10" stroke-linecap="round" stroke-linejoin="round"/>
<path d="M53.741 71.343C52.448 70.687 50.268 71.347 48.735 71.343C46.887 71.339 45.032 71.327 43.215 71.47C35.602 72.068 27.979 71.015 20.369 71.343C17.172 71.482 13.951 71.468 10.734 71.468C8.78299 71.468 6.05999 71.925 4.23999 71.343V6.34302C6.03299 6.79802 8.71299 6.56002 10.644 6.71802C13.373 6.94302 16.248 7.16102 18.988 6.84102C24.615 6.18302 30.515 6.71802 36.213 6.71802C42.182 6.71802 47.895 6.58302 53.758 6.46002L53.741 71.343Z" stroke="white" stroke-width="1.5" stroke-miterlimit="10" stroke-linecap="round" stroke-linejoin="round"/>
<path d="M13.506 34.783C14.485 34.185 15.43 33.168 16.532 32.495C17.683 31.793 18.805 30.933 19.973 30.3C21.193 29.639 22.974 29.293 24.315 28.963C25.852 28.583 27.454 28.169 29.076 28.3C29.89 28.365 30.792 28.278 31.606 28.421C32.358 28.553 33.008 28.889 33.682 29.087C35.24 29.545 36.7 29.939 38.155 30.624C39.343 31.184 40.743 31.594 41.807 32.42C42.488 32.948 44.215 34.233 44.493 34.928" stroke="white" stroke-width="1.5" stroke-miterlimit="10" stroke-linecap="round" stroke-linejoin="round"/>
<path d="M17.686 40.044C18.888 39.774 19.589 38.384 20.658 37.809C21.663 37.268 22.717 36.652 23.739 36.171C26.47 34.888 30.023 34.56 32.891 35.563C34.406 36.092 35.957 36.416 37.303 37.361C38.222 38.006 39.634 39.002 40.17 39.901" stroke="white" stroke-width="1.5" stroke-miterlimit="10" stroke-linecap="round" stroke-linejoin="round"/>
<path d="M22.226 44.8721C23.095 44.4011 23.6969 43.2911 24.6199 42.7281C25.5429 42.1661 27.0549 41.6901 28.1349 41.6301C31.1439 41.4631 33.604 42.9611 35.922 44.7301" stroke="white" stroke-width="1.5" stroke-miterlimit="10" stroke-linecap="round" stroke-linejoin="round"/>
<path d="M28.194 49.96C28.873 50.171 29.793 49.879 30.006 49.28C30.402 48.166 29.074 46.814 27.937 47.782C27.221 48.393 27.117 49.626 28.194 49.96Z" fill="white" stroke="white" stroke-width="1.5" stroke-miterlimit="10"/>
</g>
<defs>
<clipPath id="clip0_59_395">
<rect width="58" height="78" fill="white"/>
</clipPath>
</defs>
</svg>
