<svg width="32" height="30" viewBox="0 0 32 30" fill="none" xmlns="http://www.w3.org/2000/svg">
<g clip-path="url(#clip0_59_388)">
<path fill-rule="evenodd" clip-rule="evenodd" d="M26.751 12.196C25.803 12.209 25.503 12.055 24.578 11.407C23.967 10.978 23.559 10.25 22.997 9.82502C20.872 9.23402 18.321 8.60902 15.688 8.64002C14.625 8.65302 13.377 8.82402 12.525 9.03602C12.184 9.11902 12.098 9.38002 11.934 9.43102C11.538 9.55102 11.595 9.31102 11.34 9.43102C10.884 9.64602 10.584 10.289 9.95697 10.024C9.68097 10.407 9.22497 10.61 8.77097 10.815C7.86497 11.752 7.05197 12.783 5.60897 13.186C5.49897 12.901 5.30097 12.704 5.01697 12.593C5.01997 11.409 5.80897 11.014 6.59897 10.618C6.87997 9.71402 8.01797 9.66702 8.37497 8.83902C9.50297 8.32102 10.738 7.90602 11.735 7.25802C15.291 6.72402 18.198 6.94002 22.008 7.65402C22.826 7.96402 23.709 8.34402 24.576 8.83902C25.581 9.40902 27.142 10.521 26.751 12.196Z" fill="white"/>
<path fill-rule="evenodd" clip-rule="evenodd" d="M23.195 16.951C23.01 17.096 22.895 17.31 22.799 17.544C21.45 17.708 21.229 16.744 20.627 16.161C19.056 15.944 17.717 15.311 16.28 15.371C15.704 15.394 15.094 15.804 14.503 15.568C14.401 16.071 14.063 15.704 13.513 15.963C13.221 16.104 13.398 16.506 12.723 16.161C12.168 16.528 11.522 16.805 10.944 17.148C10.517 17.287 10.728 17.715 10.55 17.94C10.435 18.081 10.092 17.956 9.95599 18.136C10.016 18.055 10.109 18.438 9.95599 18.531C9.45799 18.304 8.82799 18.212 8.57299 17.742C8.41699 16.728 9.44799 16.903 9.36499 15.963C10.477 15.429 11.537 14.844 12.525 14.185C12.874 14.476 13.71 14.056 14.106 13.79C14.463 14.001 15.773 13.848 16.279 13.592C17.518 13.864 18.362 13.66 19.045 14.185C19.67 13.913 20.237 14.673 20.428 14.185C21.46 14.998 23.031 15.271 23.195 16.951Z" fill="white"/>
<path fill-rule="evenodd" clip-rule="evenodd" d="M15.49 19.94C17.194 19.224 19.368 20.573 20.428 21.716C20.28 23.313 20.811 24.231 20.824 25.669C20.843 26.055 20.566 26.02 20.428 26.262C20.334 26.424 20.368 26.856 20.23 27.052C19.694 27.816 18.711 28.054 18.255 28.83C16.68 29.343 14.976 29.593 13.317 28.632C12.548 28.188 11.699 27.175 11.538 25.865C11.397 24.721 11.877 23.735 11.934 22.309C12.463 22.492 12.168 21.908 12.328 21.715C12.44 21.582 12.997 21.451 13.12 21.32C13.399 21.016 13.253 20.727 13.514 20.529C14.469 20.63 14.61 19.917 15.49 19.94ZM14.503 21.717C14.31 22.595 13.433 23.072 13.318 24.089C13.167 25.395 13.933 26.717 14.503 27.646C14.735 27.676 15.063 27.612 15.094 27.842C16.639 27.608 17.712 26.902 18.649 26.065C18.693 25.368 19.428 24.441 18.649 24.089C18.891 24.067 19.118 24.028 19.045 23.693C19.045 23.43 19.045 23.167 19.045 22.904C18.121 21.55 16.491 21.1 14.503 21.717Z" fill="white"/>
<path fill-rule="evenodd" clip-rule="evenodd" d="M0.474944 9.64102C-0.163056 9.19902 0.0999433 8.00002 0.669943 7.66502C0.867943 6.93902 1.62095 6.77002 1.65995 5.88702C2.52194 5.63202 2.89995 4.88902 3.43595 4.30602C4.13195 4.34202 4.28795 3.84002 4.62195 3.51602C5.43395 3.62302 5.61995 2.91702 6.00495 2.72502C6.12495 2.66602 6.38294 2.85202 6.59894 2.72502C6.72894 2.64802 6.92995 2.48502 6.99195 2.33002C7.90095 2.24902 8.74495 2.10602 9.16695 1.53802C9.59995 1.97602 9.97495 1.34402 10.7479 1.53802C11.2879 1.68402 11.1439 1.14602 11.5379 1.14302C13.2129 1.13102 13.8149 1.16702 14.8979 0.74802C16.5969 0.59702 18.2219 1.00602 19.4399 0.74802C21.1069 1.38502 23.2169 1.57902 25.1709 1.93402C25.7539 2.79702 27.3269 2.67202 27.9349 3.51502C29.2319 3.60202 29.6989 4.51902 30.7019 4.89802C31.1159 5.73402 31.9749 6.12502 31.8869 7.46602C31.3509 7.51602 31.3069 7.85402 30.8999 7.86102C29.9619 7.87702 29.6609 6.98902 29.3189 6.27902C28.8299 6.25902 28.7999 5.76902 28.3319 5.48802C28.1009 5.35002 28.1049 5.45302 27.9359 5.29002C27.8159 5.17502 26.9409 4.68602 26.5549 4.50002C25.7499 4.12002 24.6459 3.73802 23.5899 3.71102C23.6269 2.95302 23.4289 3.63802 22.9959 3.51302C22.9259 3.25302 22.6489 3.20202 22.5999 2.91902C21.5239 3.12202 20.4689 2.61102 19.4399 2.52402C19.1169 2.49702 18.7959 2.72202 18.4529 2.72202C17.9719 2.72202 16.6819 2.51902 16.2789 2.52402C15.9669 2.52802 15.9319 2.72802 15.6879 2.72202C15.6279 2.72102 15.3569 2.50702 15.0939 2.52402C14.0629 2.59302 12.9479 2.93802 11.7359 2.91902C10.7619 3.37102 9.61595 3.19502 8.57395 3.90702C7.43495 4.28302 6.54195 4.90602 5.41395 5.28902C5.37795 5.45802 5.48995 5.47702 5.60995 5.48702C5.52395 5.77502 5.43794 5.46702 5.21594 5.48702C4.77594 5.53102 4.96795 5.87102 4.62195 6.08102C4.16595 6.35702 4.23095 5.94302 3.83195 6.47602C3.68595 6.67302 3.44095 7.04502 2.84495 7.06802C2.36095 7.33102 3.06094 7.80302 2.64694 7.85902C2.35694 8.03102 2.01895 8.15402 2.05295 8.65002C1.80895 9.26602 1.49894 9.81002 0.474944 9.64102Z" fill="white"/>
</g>
<defs>
<clipPath id="clip0_59_388">
<rect width="32" height="30" fill="white"/>
</clipPath>
</defs>
</svg>
