<svg width="180" height="180" viewBox="0 0 180 180" fill="none" xmlns="http://www.w3.org/2000/svg">
<mask id="mask0_54_363" style="mask-type:luminance" maskUnits="userSpaceOnUse" x="0" y="0" width="180" height="180">
<path d="M0 0H180V180H0V0Z" fill="white"/>
</mask>
<g mask="url(#mask0_54_363)">
<mask id="mask1_54_363" style="mask-type:luminance" maskUnits="userSpaceOnUse" x="0" y="0" width="180" height="180">
<path d="M24.2445 0H155.756C162.184 0 168.35 2.55841 172.896 7.10425C177.442 11.6501 180 17.8155 180 24.2445V155.756C180 162.184 177.442 168.35 172.896 172.896C168.35 177.442 162.184 180 155.756 180H24.2445C17.8155 180 11.6501 177.442 7.10425 172.896C2.55841 168.35 0 162.184 0 155.756V24.2445C0 17.8155 2.55841 11.6501 7.10425 7.10425C11.6501 2.55841 17.8155 0 24.2445 0Z" fill="white"/>
</mask>
<g mask="url(#mask1_54_363)">
<path d="M0 0H180V180H0V0Z" fill="#1E1E1E"/>
</g>
</g>
<mask id="mask2_54_363" style="mask-type:luminance" maskUnits="userSpaceOnUse" x="15" y="70" width="121" height="64">
<path d="M15.8726 70.7021H135.679V133.037H15.8726V70.7021Z" fill="white"/>
</mask>
<g mask="url(#mask2_54_363)">
<path fill-rule="evenodd" clip-rule="evenodd" d="M31.7719 101.595H39.0024C42.4228 84.5647 57.3615 71.8166 75.3472 71.8166C93.3274 71.8166 108.359 84.5647 111.791 101.595H118.928C127.679 101.595 134.91 108.732 134.91 117.484C134.91 126.24 127.679 133.378 118.928 133.378H31.7719C23.0151 133.378 15.8779 126.24 15.8779 117.484C15.8779 108.732 23.0151 101.595 31.7719 101.595Z" fill="#FFD18D"/>
</g>
<mask id="mask3_54_363" style="mask-type:luminance" maskUnits="userSpaceOnUse" x="48" y="100" width="88" height="34">
<path d="M48.5386 100.217H135.678V133.037H48.5386V100.217Z" fill="white"/>
</mask>
<g mask="url(#mask3_54_363)">
<path fill-rule="evenodd" clip-rule="evenodd" d="M111.79 101.595H118.928C127.679 101.595 134.909 108.738 134.909 117.489C134.909 126.24 127.679 133.378 118.928 133.378H48.7031C76.2966 126.905 84.2903 104.928 111.79 101.595Z" fill="#E4B976"/>
</g>
<mask id="mask4_54_363" style="mask-type:luminance" maskUnits="userSpaceOnUse" x="94" y="46" width="67" height="88">
<path d="M94.9189 46.6004H160.976V133.037H94.9189V46.6004Z" fill="white"/>
</mask>
<g mask="url(#mask4_54_363)">
<path fill-rule="evenodd" clip-rule="evenodd" d="M160.125 93.4149C158.22 85.229 154.322 77.713 152.417 70.1037C149.084 56.5924 152.51 46.6004 152.51 46.6004C152.51 46.6004 144.237 46.8858 139.954 52.7878C139.954 52.7878 125.488 51.1682 118.164 56.3069C110.835 61.4457 105.888 58.9697 100.464 62.2034C95.0395 65.4371 93.5187 73.244 97.801 74.2872C101.985 75.3358 106.36 70.3892 114.074 75.2425C124.06 81.6165 138.62 80.9522 146.614 71.4323C146.614 71.4323 143.754 77.9052 136.715 80.4746C136.715 80.4746 138.428 91.7019 131.67 100.261C137.001 104.165 140.427 110.445 140.427 117.484C140.427 123.764 137.665 129.474 133.383 133.378C153.367 133.378 164.122 110.731 160.125 93.4149Z" fill="white"/>
</g>
</svg>
