<svg width="456" height="74" viewBox="0 0 456 74" fill="none" xmlns="http://www.w3.org/2000/svg">
<g clip-path="url(#clip0_53_76)">
<mask id="mask0_53_76" style="mask-type:luminance" maskUnits="userSpaceOnUse" x="0" y="0" width="73" height="74">
<path d="M0.708496 0.875H72.9533V73.125H0.708496V0.875Z" fill="white"/>
</mask>
<g mask="url(#mask0_53_76)">
<mask id="mask1_53_76" style="mask-type:luminance" maskUnits="userSpaceOnUse" x="0" y="0" width="73" height="74">
<path d="M23.7085 0.875H49.9533C62.6564 0.875 72.9533 11.1771 72.9533 23.875V50.125C72.9533 62.8229 62.6564 73.125 49.9533 73.125H23.7085C11.0054 73.125 0.708496 62.8229 0.708496 50.125V23.875C0.708496 11.1771 11.0054 0.875 23.7085 0.875Z" fill="white"/>
</mask>
<g mask="url(#mask1_53_76)">
<path d="M0.708496 0.875H72.9533V73.125H0.708496V0.875Z" fill="#1E1E1E"/>
</g>
</g>
<mask id="mask2_53_76" style="mask-type:luminance" maskUnits="userSpaceOnUse" x="7" y="29" width="49" height="26">
<path d="M7.07812 29.6667H56V54.5833H7.07812V29.6667Z" fill="white"/>
</mask>
<g mask="url(#mask2_53_76)">
<path fill-rule="evenodd" clip-rule="evenodd" d="M13.4585 41.651H16.3595C17.7345 34.8177 23.7293 29.6979 30.9481 29.6979C38.1668 29.6979 44.1981 34.8177 45.5731 41.651H48.4377C51.9481 41.651 54.8543 44.5156 54.8543 48.0313C54.8543 51.5417 51.9481 54.4063 48.4377 54.4063H13.4585C9.94808 54.4063 7.0835 51.5417 7.0835 48.0313C7.0835 44.5156 9.94808 41.651 13.4585 41.651Z" fill="#FFD18D"/>
</g>
<mask id="mask3_53_76" style="mask-type:luminance" maskUnits="userSpaceOnUse" x="20" y="40" width="36" height="15">
<path d="M20 40.3333H56V54.5833H20V40.3333Z" fill="white"/>
</mask>
<g mask="url(#mask3_53_76)">
<path fill-rule="evenodd" clip-rule="evenodd" d="M45.5731 41.651H48.4377C51.9481 41.651 54.8543 44.5156 54.8543 48.0313C54.8543 51.5417 51.9481 54.4063 48.4377 54.4063H20.2554C31.3283 51.8073 34.5366 42.9896 45.5731 41.651Z" fill="#E4B976"/>
</g>
<mask id="mask4_53_76" style="mask-type:luminance" maskUnits="userSpaceOnUse" x="38" y="19" width="28" height="36">
<path d="M38.6665 19.5833H65.3332V54.5833H38.6665V19.5833Z" fill="white"/>
</mask>
<g mask="url(#mask4_53_76)">
<path fill-rule="evenodd" clip-rule="evenodd" d="M64.9686 38.3698C64.2082 35.0833 62.6405 32.0677 61.8801 29.0104C60.5415 23.5886 61.9165 19.5833 61.9165 19.5833C61.9165 19.5833 58.5936 19.6927 56.8749 22.0625C56.8749 22.0625 51.0728 21.4167 48.1301 23.474C45.1926 25.5365 43.203 24.5469 41.0259 25.8438C38.8488 27.1406 38.2395 30.2708 39.9582 30.6927C41.6405 31.1146 43.3957 29.125 46.4895 31.0729C50.4999 33.6354 56.3436 33.3646 59.5467 29.5469C59.5467 29.5469 58.4009 32.1458 55.578 33.1719C55.578 33.1719 56.2655 37.6823 53.552 41.1146C55.6926 42.6823 57.0676 45.2031 57.0676 48.0313C57.0676 50.5469 55.9582 52.8386 54.2395 54.4063C62.2603 54.4063 66.5728 45.3177 64.9686 38.3698Z" fill="white"/>
</g>
<path d="M93.2577 54.1321L82.8618 17.8196H91.2576L97.2577 43.0488H97.5702L104.195 17.8196H111.383L117.987 43.1113H118.32L124.32 17.8196H132.716L122.32 54.1321H114.841L107.924 30.3821H107.633L100.737 54.1321H93.2577Z" fill="#1E1E1E"/>
<path d="M144.485 17.8196V54.1321H136.818V17.8196H144.485Z" fill="#1E1E1E"/>
<path d="M150.827 54.1321V17.8196H174.868V24.153H158.493V32.7988H173.264V39.1321H158.493V54.1321H150.827Z" fill="#1E1E1E"/>
<path d="M187.699 17.8196V54.1321H180.033V17.8196H187.699Z" fill="#1E1E1E"/>
<path d="M237.663 30.528H229.892C229.601 28.528 228.746 26.9603 227.33 25.8196C225.924 24.6842 224.168 24.1113 222.059 24.1113C219.252 24.1113 217.002 25.1478 215.309 27.2155C213.611 29.2728 212.767 32.1894 212.767 35.9655C212.767 39.8561 213.621 42.8092 215.33 44.8196C217.038 46.8353 219.267 47.8405 222.017 47.8405C224.059 47.8405 225.788 47.3092 227.205 46.2363C228.621 45.1686 229.517 43.6634 229.892 41.7155L237.663 41.7571C237.382 43.9811 236.585 46.0696 235.267 48.028C233.96 49.9863 232.184 51.58 229.934 52.7988C227.684 54.0228 225.002 54.6321 221.892 54.6321C218.653 54.6321 215.757 53.903 213.205 52.4446C210.663 50.9759 208.653 48.8509 207.184 46.0696C205.71 43.2936 204.976 39.9238 204.976 35.9655C204.976 32.0071 205.715 28.6425 207.205 25.8613C208.689 23.0853 210.71 20.9655 213.267 19.5071C215.819 18.0488 218.694 17.3196 221.892 17.3196C224.694 17.3196 227.226 17.8405 229.476 18.8821C231.726 19.9134 233.564 21.4134 234.996 23.3821C236.439 25.3405 237.33 27.7259 237.663 30.528Z" fill="#1E1E1E"/>
<path d="M249.43 54.1321H241.201L253.742 17.8196H263.638L276.159 54.1321H267.93L265.222 45.8405H252.117L249.43 54.1321ZM254.076 39.8613H263.305L258.826 26.1113H258.555L254.076 39.8613Z" fill="#1E1E1E"/>
<path d="M280.525 54.1321V17.8196H294.838C298.963 17.8196 302.161 18.8978 304.442 21.0488C306.718 23.205 307.859 26.08 307.859 29.6738C307.859 32.1634 307.301 34.2884 306.192 36.0488C305.093 37.8144 303.51 39.1321 301.442 40.0071L309.15 54.1321H300.671L293.796 41.2571H288.192V54.1321H280.525ZM288.192 35.0905H293.4C297.76 35.0905 299.942 33.2884 299.942 29.6738C299.942 25.955 297.755 24.0905 293.38 24.0905H288.192V35.0905Z" fill="#1E1E1E"/>
<path d="M319.546 54.1321H311.316L323.858 17.8196H333.754L346.275 54.1321H338.046L335.337 45.8405H322.233L319.546 54.1321ZM324.191 39.8613H333.421L328.941 26.1113H328.671L324.191 39.8613Z" fill="#1E1E1E"/>
<path d="M357.183 17.8196L365.975 45.403H366.308L375.1 17.8196H383.62L371.1 54.1321H361.204L348.662 17.8196H357.183Z" fill="#1E1E1E"/>
<path d="M394.237 54.1321H386.008L398.549 17.8196H408.445L420.966 54.1321H412.737L410.029 45.8405H396.924L394.237 54.1321ZM398.883 39.8613H408.112L403.633 26.1113H403.362L398.883 39.8613Z" fill="#1E1E1E"/>
<path d="M455.708 17.8196V54.1321H449.062L433.27 31.278H432.999V54.1321H425.333V17.8196H432.062L447.728 40.653H448.062V17.8196H455.708Z" fill="#1E1E1E"/>
</g>
<defs>
<clipPath id="clip0_53_76">
<rect width="456" height="74" fill="white"/>
</clipPath>
</defs>
</svg>
